<?xml version="1.0" encoding="UTF-8"?>
<svg version="1.1" xmlns="http://www.w3.org/2000/svg" width="32" height="32">
<path d="M0 0 C10.56 0 21.12 0 32 0 C32 10.56 32 21.12 32 32 C21.44 32 10.88 32 0 32 C0 21.44 0 10.88 0 0 Z " fill="#10A767" transform="translate(0,0)"/>
<path d="M0 0 C1.98 0 3.96 0 6 0 C6 5.94 6 11.88 6 18 C7.32 18.33 8.64 18.66 10 19 C10 20.65 10 22.3 10 24 C3.53005966 24.36622304 3.53005966 24.36622304 1.28125 22.8125 C-0.44334597 20.37282766 -0.30267769 18.76872728 -0.1875 15.8125 C-0.16042969 14.91144531 -0.13335937 14.01039062 -0.10546875 13.08203125 C-0.07066406 12.39496094 -0.03585937 11.70789062 0 11 C-0.99 11 -1.98 11 -3 11 C-3 9.35 -3 7.7 -3 6 C-2.01 6 -1.02 6 0 6 C0 4.02 0 2.04 0 0 Z " fill="#FAFDFC" transform="translate(11,4)"/>
<path d="M0 0 C1.32 0.66 2.64 1.32 4 2 C3.67 3.32 3.34 4.64 3 6 C1.35 5.67 -0.3 5.34 -2 5 C-1.125 1.125 -1.125 1.125 0 0 Z " fill="#F0F9F5" transform="translate(20,9)"/>
</svg>
